<svg xmlns="http://www.w3.org/2000/svg" xmlns:xlink="http://www.w3.org/1999/xlink" version="1.1" width="256" height="256" viewBox="0 0 256 256" xml:space="preserve">

<defs>
</defs>
<g style="stroke: none; stroke-width: 0; stroke-dasharray: none; stroke-linecap: butt; stroke-linejoin: miter; stroke-miterlimit: 10; fill: none; fill-rule: nonzero; opacity: 1;" transform="translate(1.4065934065934016 1.4065934065934016) scale(2.81 2.81)" >
	<path d="M 32.739 80.577 v -9.423 h 24.523 v 9.423 v 3.771 c 0 3.121 -2.53 5.652 -5.652 5.652 H 38.39 c -3.121 0 -5.652 -2.53 -5.652 -5.652 V 80.577 z" style="stroke: none; stroke-width: 1; stroke-dasharray: none; stroke-linecap: butt; stroke-linejoin: miter; stroke-miterlimit: 10; fill: rgb(39,53,164); fill-rule: nonzero; opacity: 1;" transform=" matrix(1 0 0 1 0 0) " stroke-linecap="round" />
	<path d="M 45 0 C 29.175 0 16.347 12.828 16.347 28.653 c 0 3.832 0.768 7.48 2.134 10.819 c 0.633 1.547 1.381 3.034 2.263 4.432 c 4.756 7.541 7.87 15.976 8.714 24.777 c 0.135 1.404 1.315 2.472 2.725 2.472 H 45 h 12.817 c 1.41 0 2.59 -1.069 2.725 -2.472 c 0.844 -8.8 3.958 -17.236 8.714 -24.777 c 0.882 -1.398 1.631 -2.885 2.263 -4.432 c 1.366 -3.34 2.134 -6.987 2.134 -10.819 C 73.653 12.828 60.825 0 45 0 z" style="stroke: none; stroke-width: 1; stroke-dasharray: none; stroke-linecap: butt; stroke-linejoin: miter; stroke-miterlimit: 10; fill: rgb(0,249,255); fill-rule: nonzero; opacity: 1;" transform=" matrix(1 0 0 1 0 0) " stroke-linecap="round" />
	<path d="M 45.224 0.006 l 0.001 0.65 c -0.818 1.527 -2.413 0.912 -2.682 2.103 c -0.16 0.705 -0.336 1.444 -0.817 1.983 c -0.539 0.604 -1.888 1.105 -2.685 1.247 c -1.626 0.29 -1.816 0.089 -3.424 -0.286 c 0.094 2.255 0.018 1.475 -0.8 3.578 c -1.165 0.061 -3.088 0.365 -4.131 0.886 c -0.483 0.241 -0.595 2.642 -0.35 3.665 c 0.121 0.504 0.119 1.047 0.52 1.374 c 0.402 0.327 0.925 0.466 1.44 0.524 c 1.253 0.141 2.552 -0.166 3.61 -0.852 c 0.691 -0.448 1.283 -1.052 2.024 -1.412 c 0.741 -0.36 2.582 -0.624 3.149 -0.026 c 0.628 0.661 -0.951 3.684 0.57 3.911 c 0.718 0.107 1.386 -2.034 1.749 -2.663 c 0.363 -0.629 0.856 -1.368 1.581 -1.319 c 0.338 0.023 0.636 0.224 0.896 0.442 c 0.816 0.685 0.475 2.736 1.54 2.693 c 0.854 -0.034 1.844 -0.88 2.31 -1.596 c 0.455 0.52 0.536 2.293 1.191 2.513 c 0.66 0.221 2.856 -0.458 3.306 0.074 c 0.124 0.146 0.241 0.311 0.266 0.501 c 0.053 0.405 -0.315 0.735 -0.668 0.939 c -1.314 0.76 -2.267 1.808 -3.636 2.463 c -5.7 2.727 -6.391 -2.08 -15.323 -2.363 c -2.812 0.595 -4.056 0.705 -5.276 2.238 c -1.014 1.275 -1.014 1.275 -1.608 2.463 c -1.006 2.014 -0.019 4.672 0.99 6.685 c 0.694 1.385 1.591 3.775 2.951 4.516 c 0.722 0.394 1.534 0.586 2.335 0.775 c 1.206 0.284 1.71 -0.133 2.916 0.151 c 0.512 0.121 1.043 0.25 1.451 0.582 c 0.427 0.347 0.664 0.869 0.887 1.371 c 0.478 1.08 0.96 2.167 1.232 3.317 c 0.229 0.966 0.307 1.966 0.589 2.918 c 0.58 1.956 1.978 5.897 2.61 7.836 c 0.157 0.481 0.268 0.984 0.519 1.424 c 0.303 0.531 0.802 0.939 1.367 1.173 c 1.077 0.446 2.336 0.257 3.385 -0.252 c 1.049 -0.509 1.926 -3.621 2.768 -4.428 c 2.555 -2.449 5.04 -5.283 5.661 -8.768 c 0.151 -0.849 0.202 -1.761 0.697 -2.467 c 0.487 -0.696 1.31 -2.079 1.998 -2.578 c 0.85 -0.617 1.518 -1.481 1.901 -2.458 c 0.193 -0.493 0.315 -1.042 0.169 -1.551 c -0.24 -0.837 -1.05 -1.252 -1.878 -1.636 c -0.007 0.015 -0.006 0.032 -0.015 0.047 c -0.186 0.341 -0.537 0.534 -0.9 0.534 c -0.165 0 -0.333 -0.04 -0.487 -0.124 c -1.112 -0.604 -2.022 -1.566 -2.565 -2.708 c -0.248 -0.523 -0.418 -1.068 -0.583 -1.594 c -0.3 -0.957 -0.558 -1.784 -1.161 -2.171 c -0.475 -0.306 -0.612 -0.938 -0.307 -1.413 c 0.306 -0.475 0.94 -0.613 1.413 -0.307 c 1.226 0.789 1.64 2.112 2.006 3.28 c 0.151 0.481 0.293 0.935 0.479 1.328 c 0.359 0.754 0.96 1.389 1.694 1.789 c 0.192 0.104 0.321 0.269 0.411 0.452 c 1.954 -0.892 4.276 -1.503 6.091 -2.502 c 0.5 -0.276 1.009 -0.557 1.407 -0.967 c 0.179 -0.184 0.341 -0.416 0.329 -0.673 c -0.008 -0.164 -0.086 -0.315 -0.163 -0.46 c -0.217 -0.409 -0.428 -0.639 -0.641 -0.843 c -0.093 0.002 -0.188 0.01 -0.28 0.01 c -1.313 0 -2.508 -0.215 -3.564 -0.641 c -1.58 -0.638 -2.821 -1.749 -3.497 -3.127 c -0.249 -0.507 -0.04 -1.12 0.467 -1.369 c 0.509 -0.248 1.122 -0.038 1.368 0.468 c 0.447 0.912 1.331 1.688 2.427 2.131 c 0.995 0.402 2.186 0.558 3.526 0.466 c 0.591 -0.024 1.053 0.388 1.091 0.951 c 0 0 0 0 0 0 c 0.971 -0.047 1.942 0.015 2.597 0.682 c 0.799 0.813 0.704 2.108 0.79 3.245 c 0.088 1.169 0.465 2.328 1.158 3.265 c 0.024 -0.477 0.037 -0.957 0.037 -1.44 C 73.653 12.904 60.945 0.127 45.224 0.006 z M 55.265 14.338 c -0.615 0.236 -1.463 0.239 -2.361 0.241 c -0.51 0.001 -1.342 0.004 -1.644 0.096 c -0.197 0.209 -0.468 0.321 -0.745 0.321 c -0.192 0 -0.386 -0.053 -0.557 -0.166 c -0.473 -0.309 -0.607 -0.942 -0.299 -1.415 c 0.569 -0.873 1.807 -0.877 3.239 -0.881 c 0.578 -0.001 1.369 -0.004 1.634 -0.105 c 0.526 -0.203 1.12 0.06 1.321 0.588 C 56.056 13.544 55.793 14.135 55.265 14.338 z" style="stroke: none; stroke-width: 1; stroke-dasharray: none; stroke-linecap: butt; stroke-linejoin: miter; stroke-miterlimit: 10; fill: rgb(46,133,85); fill-rule: nonzero; opacity: 1;" transform=" matrix(1 0 0 1 0 0) " stroke-linecap="round" />
	<path d="M 20.688 37.524 c -1.448 -0.527 -2.523 -1.329 -3.541 -2.189 c 0.344 1.422 0.789 2.806 1.333 4.138 c 0.633 1.547 1.381 3.035 2.263 4.432 c 1.15 1.824 2.199 3.702 3.149 5.623 c 1.068 -1.672 1.961 -3.195 2.158 -3.922 c 0.498 -1.841 0.361 -3.957 -0.821 -5.453 C 24.13 38.761 22.355 38.13 20.688 37.524 z" style="stroke: none; stroke-width: 1; stroke-dasharray: none; stroke-linecap: butt; stroke-linejoin: miter; stroke-miterlimit: 10; fill: rgb(46,133,85); fill-rule: nonzero; opacity: 1;" transform=" matrix(1 0 0 1 0 0) " stroke-linecap="round" />
	<path d="M 48.55 79.554 H 32.739 c 0 0 0 0 0 0 v 1.023 v 1.023 c 0 0 0 0 0 0 H 48.55 c 0.565 0 1.023 -0.457 1.023 -1.023 C 49.572 80.011 49.115 79.554 48.55 79.554 z" style="stroke: none; stroke-width: 1; stroke-dasharray: none; stroke-linecap: butt; stroke-linejoin: miter; stroke-miterlimit: 10; fill: rgb(0,249,255); fill-rule: nonzero; opacity: 1;" transform=" matrix(1 0 0 1 0 0) " stroke-linecap="round" />
</g>
</svg>